<svg width="1063" height="560" viewBox="0 0 1063 560" fill="none" xmlns="http://www.w3.org/2000/svg">
<rect width="1063" height="560" fill="#C2FFFA"/>
<g clip-path="url(#clip0_1401_172)">
<path d="M857.735 340.004H827.227L858.858 242.01C859.752 239.087 858.181 237.065 855.27 237.065H789.536C786.828 237.065 785.277 238.639 785.277 241.338V257.97C785.277 260.683 786.848 262.237 789.536 262.237H816.435L784.614 360.237C783.72 363.161 785.291 365.182 788.432 365.182H857.735C860.443 365.182 862 363.608 862 360.909V344.27C862 341.577 860.443 340.004 857.735 340.004Z" fill="#F85606"/>
<path d="M775.406 345.172V241.338C775.406 238.625 773.835 237.065 771.147 237.065H745.799C742.88 237.065 741.31 238.639 741.31 241.338V250.353H738.838C736.597 240.918 729.868 235.519 717.532 235.519C698.906 235.519 688.365 247.66 688.365 287.89V314.635C688.365 354.865 698.683 366.776 717.532 366.776C730.992 366.776 738.392 360.481 740.409 348.794H743.117L746.022 361.356C746.699 363.825 748.263 365.175 750.761 365.175H774.322C777.457 365.175 778.581 363.14 778.134 360.427L775.406 345.172ZM741.283 321.35C741.283 337.982 738.574 341.577 732.082 341.577C725.805 341.577 723.111 337.982 723.111 321.574V279.323C723.111 262.691 726.029 259.09 732.082 259.09C738.588 259.09 741.283 262.691 741.283 279.547V321.35Z" fill="#F85606"/>
<path d="M677.376 237.289L652.921 254.823H651.351V241.338C651.351 238.625 649.78 237.065 647.092 237.065H623.084C620.376 237.065 618.825 238.639 618.825 241.338V360.915C618.825 363.629 620.396 365.189 623.084 365.189H648.663C651.574 365.189 652.921 363.615 652.921 360.915V289.206L679.841 269.881C681.872 268.308 682.549 266.958 682.549 264.713V239.989C682.535 236.618 680.064 235.268 677.376 237.289Z" fill="#F85606"/>
<path d="M606.259 345.172V241.338C606.259 238.625 604.689 237.065 602.001 237.065H576.652C573.734 237.065 572.163 238.639 572.163 241.338V250.353H569.692C567.451 240.918 560.721 235.519 548.386 235.519C529.767 235.519 519.218 247.66 519.218 287.89V314.635C519.218 354.865 529.537 366.776 548.386 366.776C561.845 366.776 569.245 360.481 571.263 348.794H573.971L576.889 361.383C577.566 363.852 579.13 365.202 581.628 365.202H605.183C608.324 365.202 609.441 363.167 608.995 360.454L606.259 345.172ZM572.163 321.35C572.163 337.982 569.455 341.577 562.962 341.577C556.686 341.577 553.991 337.982 553.991 321.574V279.323C553.991 262.691 556.91 259.09 562.962 259.09C569.469 259.09 572.163 262.691 572.163 279.547V321.35Z" fill="#F85606"/>
<path d="M455.285 194.366H418.494C415.576 194.366 414.236 195.94 414.236 198.633V360.916C414.236 363.629 415.59 365.189 418.494 365.189H455.285C491.845 365.189 508.677 348.557 508.677 291.024V268.531C508.677 209.425 490.728 194.366 455.285 194.366ZM472.787 306.74C472.787 331.912 468.047 336.856 456.185 336.856H449.476V222.007H456.206C468.095 222.007 472.807 226.28 472.807 252.123L472.787 306.74Z" fill="#F85606"/>
<path d="M346.883 190.093L282.672 153.038C278.921 150.779 275.902 152.285 275.902 156.802V235.804L339.74 272.669C343.491 274.928 343.491 278.313 339.74 280.571L282.659 313.489C278.908 315.748 275.888 314.242 275.888 309.724V235.79L204.94 276.807C202.124 278.502 201 280.381 201 283.59V362.204C201 365.406 202.124 367.285 204.94 368.987L271.968 407.732C274.778 409.427 277.032 409.427 279.849 407.732L346.876 368.987C349.693 367.292 350.824 365.413 350.824 362.204V196.863C350.83 193.668 349.7 191.789 346.883 190.093Z" fill="#F85606"/>
</g>
<defs>
<clipPath id="clip0_1401_172">
<rect width="661" height="257" fill="white" transform="translate(201 152)"/>
</clipPath>
</defs>
</svg>
